<svg width="76" height="76" viewBox="0 0 76 76" fill="none" xmlns="http://www.w3.org/2000/svg">
<rect width="76" height="76" rx="5" fill="white"/>
<path d="M15 42.8267H61.7973M15 42.8267V47.8109H61.7973V42.8267M15 42.8267L19.8948 32.8789H29.2736C28.5813 33.4188 27.8061 34.0763 26.9881 34.8192M61.7973 42.8267L56.9025 32.8789H49.0239C49.7793 33.3513 50.5538 33.8901 51.1901 34.4002M23.0266 38.6336C23.9747 37.7002 25.5476 36.1274 26.9881 34.8192M26.9881 34.8192C28.4286 33.5109 29.7368 32.4673 30.6923 31.8646C31.6477 31.2619 32.2503 31.1003 32.8089 31.0856C33.3675 31.0709 33.8819 31.2032 34.4479 31.5266C35.0138 31.85 35.6312 32.3644 36.2412 32.8863M51.1901 34.4002C52.1529 35.1719 52.7997 35.8775 53.2259 36.4802C53.6522 37.0828 53.858 37.5825 53.9756 37.9427M51.1901 34.4002C50.2274 33.6285 48.9485 32.7907 47.8975 32.2174C46.8465 31.6441 46.0234 31.3355 45.3692 31.1297C44.7151 30.9239 44.2301 30.821 43.6788 30.9019C43.1276 30.9827 42.5103 31.2472 41.8929 31.725C41.2756 32.2027 40.6582 32.8935 40.0188 33.386M36.2412 32.8863L36.2326 32.8789H40.6123C40.4162 33.059 40.2185 33.2322 40.0188 33.386M36.2412 32.8863C36.8512 33.4081 37.4539 33.9372 38.086 34.0548C38.718 34.1724 39.3794 33.8784 40.0188 33.386M48.1662 32.3669L50.7797 22.4296M50.7797 22.4296L55.77 21.7814L56.4039 19.3712L47.3879 17L46.754 19.4102L50.7797 22.4296ZM18.5002 59.7341H58.2971V47.8109H18.5002V59.7341ZM31.0891 34.5053C31.8711 34.5053 32.5051 35.1393 32.5051 35.9213C32.5051 36.7033 31.8711 37.3373 31.0891 37.3373C30.3071 37.3373 29.6731 36.7033 29.6731 35.9213C29.6731 35.1393 30.3071 34.5053 31.0891 34.5053ZM35.7635 37.3276C36.5455 37.3276 37.1795 37.9616 37.1795 38.7436C37.1795 39.5256 36.5455 40.1596 35.7635 40.1596C34.9815 40.1596 34.3475 39.5256 34.3475 38.7436C34.3475 37.9616 34.9815 37.3276 35.7635 37.3276ZM43.8332 33.0942C44.6152 33.0942 45.2492 33.7282 45.2492 34.5102C45.2492 35.2922 44.6152 35.9262 43.8332 35.9262C43.0512 35.9262 42.4172 35.2922 42.4172 34.5102C42.4172 33.7282 43.0512 33.0942 43.8332 33.0942ZM47.6697 36.5338C48.4517 36.5338 49.0857 37.1678 49.0857 37.9498C49.0857 38.7318 48.4517 39.3658 47.6697 39.3658C46.8877 39.3658 46.2537 38.7318 46.2537 37.9498C46.2537 37.1678 46.8877 36.5338 47.6697 36.5338Z" stroke="#8081BD" stroke-width="3" stroke-miterlimit="22.9256" stroke-linecap="round" stroke-linejoin="round"/>
</svg>
