<svg width="76" height="76" viewBox="0 0 76 76" fill="none" xmlns="http://www.w3.org/2000/svg">
<rect width="76" height="76" rx="5" fill="white"/>
<path d="M58.0378 15C54.4953 19.9977 50.9529 24.9954 48.8803 27.9205C46.8077 30.8456 46.2051 31.6982 45.72 32.2494C45.2349 32.8006 44.8675 33.0504 44.353 33.2048C43.8385 33.3591 43.1771 33.4179 41.2515 32.8373C39.3259 32.2567 36.1362 31.0367 32.873 29.7653C29.6098 28.4938 26.2731 27.1708 24.4137 26.4579C22.5542 25.745 22.1721 25.6421 21.7679 25.598C21.3636 25.5539 20.9374 25.5686 20.5479 25.6568C20.1583 25.745 19.8055 25.9067 19.4527 26.1934C19.0999 26.48 18.7472 26.8915 18.3209 28.0013C17.8946 29.1111 17.3949 30.9191 17.1671 32.5507C16.9392 34.1823 16.9833 35.6375 17.0715 36.8942C17.1597 38.151 17.2919 39.2094 17.5345 40.0031C17.777 40.7969 18.1298 41.326 18.5855 41.767C19.0412 42.208 19.5997 42.5608 21.9148 43.0311C23.7155 43.397 26.5788 43.834 28.7584 44.145M43.5579 42.192C44.6793 41.7521 45.7792 41.2747 46.4689 40.9113C47.1605 40.547 47.4398 40.2971 47.6088 39.9516C47.7779 39.6062 47.8367 39.1653 47.8514 38.7316C47.8661 38.298 47.8367 37.8718 47.8293 37.6145C47.822 37.3573 47.8367 37.2691 48.1086 37.2029C48.3806 37.1368 48.9097 37.0927 49.2698 36.9898C49.63 36.8869 49.821 36.7252 51.3341 34.0507C52.8473 31.3762 55.6824 26.1889 58.5176 21.0016M39.4764 51.0766C39.0808 51.43 38.6851 51.7834 38.3513 52.3423C38.0176 52.9012 37.7456 53.6655 37.5251 54.5621C37.3046 55.4588 37.1356 56.4878 37.018 57.3807C36.9004 58.2737 36.8342 59.0307 36.7814 59.5551C36.7287 60.0795 36.6893 60.3712 36.6499 60.663M36.2979 36.6958C40.4625 36.6958 43.8386 40.0719 43.8386 44.2365C43.8386 48.4011 40.4625 51.7772 36.2979 51.7772C32.1333 51.7772 28.7572 48.4011 28.7572 44.2365C28.7572 40.0719 32.1333 36.6958 36.2979 36.6958ZM36.2979 39.8714C36.8457 39.8714 37.2898 40.3155 37.2898 40.8633C37.2898 41.4111 36.8457 41.8552 36.2979 41.8552C35.7501 41.8552 35.306 41.4111 35.306 40.8633C35.306 40.3155 35.7501 39.8714 36.2979 39.8714ZM36.2979 46.5081C36.8457 46.5081 37.2898 46.9522 37.2898 47.5C37.2898 48.0478 36.8457 48.4919 36.2979 48.4919C35.7501 48.4919 35.306 48.0478 35.306 47.5C35.306 46.9522 35.7501 46.5081 36.2979 46.5081ZM32.5651 42.0265C32.8391 41.5521 33.4456 41.3896 33.9202 41.6634C34.3945 41.9374 34.5571 42.544 34.2832 43.0184C34.0092 43.4928 33.4026 43.6553 32.9281 43.3815C32.4538 43.1075 32.2913 42.5009 32.5651 42.0265ZM38.3127 45.3449C38.5865 44.8705 39.1933 44.7079 39.6676 44.9818C40.1421 45.2557 40.3046 45.8624 40.0307 46.3368C39.7569 46.8112 39.1502 46.9737 38.6758 46.6997C38.2014 46.426 38.0388 45.8194 38.3127 45.3449ZM32.5652 46.3367C32.8391 46.8111 33.4457 46.9736 33.9201 46.6997C34.3945 46.4258 34.5571 45.8192 34.2832 45.3448C34.0093 44.8704 33.4026 44.7078 32.9282 44.9817C32.4538 45.2556 32.2913 45.8623 32.5652 46.3367ZM38.3127 43.0183C38.5866 43.4927 39.1933 43.6553 39.6677 43.3814C40.1421 43.1075 40.3046 42.5008 40.0307 42.0264C39.7568 41.552 39.1502 41.3895 38.6758 41.6634C38.2014 41.9373 38.0388 42.5439 38.3127 43.0183ZM33.1046 51.0697C33.5002 51.4231 33.8959 51.7765 34.2297 52.3354C34.5634 52.8943 34.8354 53.6586 35.0559 54.5552C35.2764 55.4519 35.4454 56.4809 35.563 57.3738C35.6806 58.2668 35.7468 59.0238 35.7996 59.5482C35.8523 60.0726 35.8917 60.3643 35.9311 60.6561L33.1046 51.0697Z" stroke="#8081BD" stroke-width="3" stroke-miterlimit="22.9256" stroke-linecap="round" stroke-linejoin="round"/>
</svg>
