<svg width="76" height="76" viewBox="0 0 76 76" fill="none" xmlns="http://www.w3.org/2000/svg">
<rect width="76" height="76" rx="5" fill="white"/>
<path d="M17 30.4202L38.0785 43.3848M17 30.4202V47.089L38.0785 60.0536M17 30.4202L22.3209 27.0445M38.0785 43.3848V60.0536M38.0785 43.3848L59.157 30.4202M38.0785 60.0536L59.157 47.089V30.4202M59.157 30.4202L53.9651 27.1294M46.7321 22.5448L43.4334 20.454M33.1955 20.1511L29.4162 22.5468M43.432 32.6248C43.432 30.8712 41.1444 29.4497 38.3224 29.4497C35.5004 29.4497 33.2128 30.8712 33.2128 32.6248M43.432 32.6248C43.432 34.3783 41.1444 35.7998 38.3224 35.7998C35.5004 35.7998 33.2128 34.3783 33.2128 32.6248M43.432 32.6248C43.432 32.6877 43.429 35.913 43.4232 35.975C43.2672 37.6411 41.0431 38.9625 38.3224 38.9625C35.5852 38.9625 33.3506 37.6251 33.2189 35.9446C33.2149 35.8928 33.2128 32.6775 33.2128 32.6248M43.432 19.1751C43.432 17.4215 41.1444 16 38.3224 16C35.5004 16 33.2128 17.4215 33.2128 19.1751M43.432 19.1751C43.432 20.9286 41.1444 22.3501 38.3224 22.3501C35.5004 22.3501 33.2128 20.9286 33.2128 19.1751M43.432 19.1751C43.432 19.238 43.429 22.4633 43.4232 22.5253C43.2672 24.1914 41.0431 25.5128 38.3224 25.5128C35.5852 25.5128 33.3506 24.1754 33.2189 22.4949C33.2149 22.4431 33.2128 19.2278 33.2128 19.1751M32.54 25.481C32.54 23.7274 30.2524 22.3059 27.4304 22.3059C24.6084 22.3059 22.3208 23.7274 22.3208 25.481M32.54 25.481C32.54 27.2345 30.2524 28.656 27.4304 28.656C24.6084 28.656 22.3208 27.2345 22.3208 25.481M32.54 25.481C32.54 25.5439 32.537 28.7692 32.5312 28.8312C32.3752 30.4973 30.1511 31.8187 27.4304 31.8187C24.6932 31.8187 22.4586 30.4813 22.3269 28.8008C22.3229 28.749 22.3208 25.5337 22.3208 25.481M53.9272 25.481C53.9272 23.7274 51.6396 22.3059 48.8176 22.3059C45.9956 22.3059 43.708 23.7274 43.708 25.481M53.9272 25.481C53.9272 27.2345 51.6396 28.656 48.8176 28.656C45.9956 28.656 43.708 27.2345 43.708 25.481M53.9272 25.481C53.9272 25.5439 53.9242 28.7692 53.9184 28.8312C53.7624 30.4973 51.5383 31.8187 48.8176 31.8187C46.0804 31.8187 43.8458 30.4813 43.7141 28.8008C43.7101 28.749 43.708 25.5337 43.708 25.481" stroke="#8081BD" stroke-width="3" stroke-miterlimit="22.9256" stroke-linecap="round" stroke-linejoin="round"/>
</svg>
