<svg width="76" height="76" viewBox="0 0 76 76" fill="none" xmlns="http://www.w3.org/2000/svg">
<rect width="76" height="76" rx="5" fill="white"/>
<path d="M27.8636 54.8668H33.4639H34.0373H39.1084H39.6376H44.7087H45.2821H50.309H50.8824H56.4827V45.7386C56.4827 44.0408 55.0937 42.6518 53.3959 42.6518C52.1598 42.6518 51.0876 43.3882 50.5957 44.4438M27.8636 54.8668V45.7386C27.8636 44.0408 29.2527 42.6518 30.9505 42.6518C32.1866 42.6518 33.2587 43.3882 33.7506 44.4438M27.8636 54.8668L19 33.215V24.0868C19 22.389 20.3891 21 22.0869 21C23.323 21 24.3951 21.7364 24.887 22.792M50.5957 44.4438C50.1038 43.3882 49.0317 42.6518 47.7956 42.6518C46.5595 42.6518 45.4873 43.3882 44.9954 44.4438M50.5957 44.4438L41.7321 22.792M44.9954 44.4438C44.5035 43.3882 43.4314 42.6518 42.1953 42.6518C40.9404 42.6518 39.8543 43.4107 39.373 44.4922M44.9954 44.4438L36.1318 22.792M39.373 44.4922C38.8917 43.4107 37.8057 42.6518 36.5508 42.6518C35.3147 42.6518 34.2425 43.3882 33.7506 44.4438M39.373 44.4922L30.5094 22.8404M33.7506 44.4438L24.887 22.792M47.4152 22.9862C46.9695 21.8278 45.8428 21 44.5323 21C43.2962 21 42.224 21.7364 41.7321 22.792M41.7321 22.792C41.2402 21.7364 40.1681 21 38.932 21C37.6959 21 36.6237 21.7364 36.1318 22.792M36.1318 22.792C35.6399 21.7364 34.5678 21 33.3317 21C32.0768 21 30.9907 21.7589 30.5094 22.8404M30.5094 22.8404C30.0281 21.7589 28.9421 21 27.6872 21C26.4511 21 25.3789 21.7364 24.887 22.792M47.3263 22.7783L56.2527 44.5724" stroke="#8081BD" stroke-width="3" stroke-miterlimit="22.9256" stroke-linecap="round" stroke-linejoin="round"/>
</svg>
