<svg width="76" height="76" viewBox="0 0 76 76" fill="none" xmlns="http://www.w3.org/2000/svg">
<rect width="76" height="76" rx="5" fill="white"/>
<path d="M43.7055 22.2885C46.0476 24.9432 50.0984 25.1966 52.7531 22.8545C55.4079 20.5124 55.6613 16.4616 53.3192 13.8069C50.9771 11.1521 46.9263 10.8987 44.2715 13.2408C41.6168 15.5829 41.3633 19.6337 43.7055 22.2885Z" stroke="#8081BD" stroke-width="3" stroke-miterlimit="22.9256" stroke-linecap="round" stroke-linejoin="round"/>
<path fill-rule="evenodd" clip-rule="evenodd" d="M44.6095 28.2725L27.4587 41.0086C27.378 41.0967 27.2919 41.1816 27.2003 41.2624C25.8055 42.493 23.677 42.3599 22.4464 40.965C21.2157 39.5701 21.349 37.4417 22.7438 36.2111C22.8763 36.0942 23.0154 35.9897 23.1597 35.8974L37.8054 20.6022C37.9289 22.3818 38.6166 24.1364 39.888 25.5774C41.1701 27.0306 42.8427 27.9348 44.6095 28.2725Z" stroke="#8081BD" stroke-width="3" stroke-miterlimit="22.9256" stroke-linecap="round" stroke-linejoin="round"/>
<path d="M43.6807 60.3274C37.6946 65.6086 27.5106 65.9917 22.2294 60.0056C16.9482 54.0194 16.2433 45.9833 22.2293 40.7021" stroke="#8081BD" stroke-width="3" stroke-miterlimit="22.9256" stroke-linecap="round" stroke-linejoin="round"/>
</svg>
