<svg width="36" height="36" viewBox="0 0 36 36" fill="none" xmlns="http://www.w3.org/2000/svg">
<path fill-rule="evenodd" clip-rule="evenodd" d="M26.5438 35.9987H20.5194L17.7713 35.0893L15.0445 35.9987H8.9968C4.02785 35.9987 0 31.9667 0 26.9914V9.41991C0 4.44566 4.02787 0.412598 8.99576 0.412598H26.5438C31.5127 0.412598 35.5395 4.44566 35.5395 9.41991V26.9914C35.5395 31.9657 31.5116 35.9987 26.5427 35.9987H26.5438Z" fill="#8081BD"/>
<path fill-rule="evenodd" clip-rule="evenodd" d="M15.0275 14.3341V18.2071H10.5698V23.2873H15.0275V36H20.512V23.2873H24.6023L25.3804 18.2071H20.512V14.9096C20.512 13.52 21.1926 12.1655 23.3722 12.1655H25.5857V7.8399C25.5857 7.8399 23.5776 7.49646 21.6574 7.49646C17.6485 7.49646 15.0275 9.93006 15.0275 14.3351V14.3341Z" fill="#FEFEFE"/>
</svg>
