<svg width="37" height="36" viewBox="0 0 37 36" fill="none" xmlns="http://www.w3.org/2000/svg">
<path fill-rule="evenodd" clip-rule="evenodd" d="M27.2356 35.9976H9.68869C4.71974 35.9976 0.691895 31.9657 0.691895 26.9914V9.41989C0.691895 4.44457 4.71977 0.412598 9.68766 0.412598H27.2356C32.2046 0.412598 36.2314 4.44563 36.2314 9.41989V26.9914C36.2314 31.9657 32.2035 35.9976 27.2346 35.9976H27.2356Z" fill="#8081BD"/>
<path fill-rule="evenodd" clip-rule="evenodd" d="M23.9113 11.6157C23.2444 11.6157 22.7056 12.1574 22.7056 12.8251C22.7056 13.4918 23.2444 14.0323 23.9113 14.0323C24.5771 14.0323 25.117 13.4908 25.117 12.8251C25.117 12.1574 24.5771 11.6157 23.9113 11.6157Z" fill="#FEFEFE"/>
<path fill-rule="evenodd" clip-rule="evenodd" d="M18.5436 21.492C16.7536 21.492 15.2959 20.0335 15.2959 18.2411C15.2959 16.4488 16.7525 14.9903 18.5425 14.9903C20.3336 14.9903 21.7892 16.4477 21.7892 18.2411C21.7892 20.0335 20.3326 21.492 18.5425 21.492H18.5436ZM18.5436 13.1652C15.749 13.1652 13.4741 15.4419 13.4741 18.2411C13.4741 21.0393 15.7479 23.3171 18.5436 23.3171C21.3382 23.3171 23.612 21.0404 23.612 18.2411C23.612 15.4429 21.3382 13.1652 18.5447 13.1652H18.5436Z" fill="#FEFEFE"/>
<path fill-rule="evenodd" clip-rule="evenodd" d="M14.355 9.87458C12.0134 9.87458 10.109 11.7814 10.109 14.1259V22.3531C10.109 24.6977 12.0134 26.6045 14.355 26.6045H22.5727C24.9142 26.6045 26.8175 24.6977 26.8175 22.3531V14.1259C26.8175 11.7814 24.9142 9.87458 22.5727 9.87458H14.355ZM22.5727 28.5442H14.355C10.9464 28.5442 8.17188 25.7672 8.17188 22.3531V14.1259C8.17188 10.713 10.9453 7.93488 14.3539 7.93488H22.5716C25.9802 7.93488 28.7537 10.713 28.7537 14.1259V22.3531C28.7537 25.7672 25.9802 28.5442 22.5716 28.5442H22.5727Z" fill="#FEFEFE"/>
</svg>
