<svg width="36" height="36" viewBox="0 0 36 36" fill="none" xmlns="http://www.w3.org/2000/svg">
<path fill-rule="evenodd" clip-rule="evenodd" d="M26.5437 35.9965H12.9294H11.5046H10.0702H8.9968C4.02785 35.9965 0 31.9645 0 26.9903V9.41883C0 4.44459 4.02787 0.412598 8.99576 0.412598H26.5437C31.5127 0.412598 35.5395 4.44459 35.5395 9.41883V26.9903C35.5395 31.9645 31.5127 35.9976 26.5437 35.9965Z" fill="#8081BD"/>
<path fill-rule="evenodd" clip-rule="evenodd" d="M13.8336 12.7729C14.1759 12.8014 14.4475 12.9145 14.6806 13.0655C14.9548 13.2431 15.0285 13.3991 15.1336 13.7522C15.4748 14.8987 15.3347 16.2549 15.211 17.427C15.1815 17.7064 15.1341 17.9253 15.0361 18.1543C14.9373 18.3851 14.8827 18.4691 14.7386 18.5216C14.2204 18.7103 13.7087 18.1067 13.4386 17.7741C13.0595 17.3072 12.6295 16.5389 12.3457 15.9704C12.2213 15.7213 12.1156 15.5597 11.9968 15.322L11.0631 13.3589C10.944 13.0908 10.9057 12.9106 10.7135 12.7113C10.2821 12.2638 9.94639 12.3932 9.17983 12.393C8.80381 12.3929 6.56524 12.3634 6.30014 12.41C6.15414 12.4357 6.05206 12.4777 5.9554 12.5402C5.83953 12.615 5.78078 12.7154 5.76074 12.8301V13.0372C5.81 13.3848 6.07049 13.7914 6.16809 14.0276C6.79646 15.5489 7.89802 17.5214 8.79097 19.0027C9.46803 20.1259 10.5154 21.5297 11.3495 22.5225C11.8434 23.1103 11.7259 22.9173 12.1125 23.2791C12.3844 23.5335 12.6452 23.7347 12.9594 23.9518C15.3159 25.5804 16.1966 25.5945 18.9147 25.5945C20.1255 25.5945 19.9534 24.8449 20.0093 24.1247C20.0373 23.7639 20.127 23.3746 20.259 23.0922C20.329 22.9425 20.4143 22.8003 20.5166 22.685C21.0071 22.1321 21.5001 22.5061 21.9492 22.9399L22.8361 23.905C23.1824 24.3527 24.015 25.1591 24.5659 25.4043C25.5142 25.8265 26.5801 25.5894 27.5096 25.5941C28.4465 25.599 30.0742 25.7658 30.0742 24.8821C30.0742 24.3253 29.7893 24.0341 29.5723 23.6745C29.1617 22.994 27.4619 21.2879 26.8107 20.7377C26.6546 20.6058 26.1328 20.0356 26.1328 19.6585C26.1328 18.9446 27.3806 17.5231 27.9033 16.8227C28.5012 16.0214 31.4705 12.393 29.2669 12.393L25.1081 12.4205C24.8883 12.3949 24.7283 12.4245 24.5765 12.5462C24.4289 12.6647 24.3566 12.7896 24.2809 12.963C23.9017 13.8326 23.6766 14.4938 23.1611 15.3573C23.0658 15.517 23.0219 15.6246 22.9244 15.7853L22.0965 17.0944C21.9974 17.244 21.907 17.3573 21.8025 17.5126C21.6227 17.7797 20.912 18.5189 20.6717 18.5189C19.985 18.5189 19.959 17.4876 19.9594 16.7618L20.0481 13.1591C19.9509 12.2211 19.6455 12.0033 18.8684 11.8695C17.9016 11.7031 15.7592 11.7455 14.8431 11.9305C14.4485 12.0102 13.844 12.3041 13.8336 12.7729Z" fill="#FEFEFE"/>
</svg>
