<svg width="76" height="76" viewBox="0 0 76 76" fill="none" xmlns="http://www.w3.org/2000/svg">
<rect width="76" height="76" rx="5" fill="white"/>
<path d="M36.7997 30.2734C36.153 30.7144 35.5062 31.1554 34.6537 32.3314C33.8011 33.5073 32.7428 35.4181 31.78 37.182C30.8172 38.9459 29.9499 40.5628 29.384 41.5623C28.8181 42.5619 28.5535 42.9441 28.1052 43.3263C27.6569 43.7085 27.0248 44.0906 26.209 44.3772C25.3932 44.6639 24.3937 44.855 23.1884 45.0167C21.983 45.1784 20.5719 45.3106 19.5062 45.3547C18.4405 45.3988 17.7203 45.3547 17 45.3106M37.6369 52.1456C35.6964 51.5723 33.756 50.9991 32.0141 50.5801C30.2721 50.1612 28.7287 49.8966 27.4719 49.7422C26.2151 49.5879 25.245 49.5439 24.4733 49.5733C23.7015 49.6027 23.1283 49.7055 22.68 49.8745C22.2316 50.0436 21.9083 50.2788 21.754 50.5434C21.5996 50.808 21.6143 51.1019 22.6433 51.6605C23.6722 52.2191 25.7153 53.0422 28.3626 54.0136C31.0099 54.985 34.2613 56.1045 37.5127 57.2241M37.6369 52.1456C39.5774 51.5723 41.518 50.9991 43.2599 50.5801C45.0019 50.1612 46.5453 49.8966 47.8021 49.7422C49.0589 49.5879 50.029 49.5439 50.8007 49.5733C51.5725 49.6027 52.1457 49.7055 52.594 49.8745C53.0424 50.0436 53.3657 50.2788 53.52 50.5434C53.6744 50.808 53.6597 51.1019 52.6307 51.6605C51.6018 52.2191 49.5587 53.0422 46.8026 54.0491C44.0465 55.056 40.5775 56.2467 37.5127 57.2241M37.6369 52.1456C39.6103 52.1456 41.2251 50.531 41.2251 48.5576V33.2291H34.0489V48.5576C34.0489 50.531 35.6635 52.1456 37.6369 52.1456ZM37.5127 57.2241C34.448 58.2016 31.7874 58.966 29.1269 59.7303M40.2643 31.5964C41.3227 33.5073 42.381 35.4181 43.3438 37.182C44.3066 38.9459 45.1739 40.5628 45.7398 41.5623C46.3057 42.5619 46.5703 42.9441 47.0186 43.3263C47.4669 43.7085 48.099 44.0906 48.9148 44.3772C49.7306 44.6639 50.7301 44.855 51.9354 45.0167C53.1408 45.1784 54.5519 45.3106 55.6176 45.3547C56.6833 45.3988 57.4035 45.3547 58.1238 45.3106M42.7308 58.8263C43.8847 59.2085 45.0385 59.5906 46.1924 59.9728L42.7308 58.8263ZM37.6369 17C40.389 17 42.6199 19.231 42.6199 21.983C42.6199 24.735 40.389 26.966 37.6369 26.966C34.8848 26.966 32.6539 24.735 32.6539 21.983C32.6539 19.231 34.8848 17 37.6369 17Z" stroke="#8081BD" stroke-width="3" stroke-miterlimit="22.9256" stroke-linecap="round" stroke-linejoin="round"/>
</svg>
