<svg width="76" height="76" viewBox="0 0 76 76" fill="none" xmlns="http://www.w3.org/2000/svg">
<rect width="76" height="76" rx="5" fill="white"/>
<path d="M30.7175 40.6119C28.947 42.1209 26.6511 43.0318 24.1424 43.0318C18.5409 43.0318 14 38.4908 14 32.8894C14 27.288 18.5409 22.747 24.1424 22.747C24.3375 22.747 24.5312 22.7531 24.7236 22.764C26.4748 19.723 29.7577 17.6758 33.5188 17.6758C37.2525 17.6758 40.515 19.6933 42.2755 22.6975" stroke="#8081BD" stroke-width="3" stroke-miterlimit="22.9256" stroke-linecap="round" stroke-linejoin="round"/>
<path d="M50.0537 40.235C48.2341 41.968 45.7712 43.0318 43.06 43.0318C40.3378 43.0318 37.866 41.9594 36.0443 40.214M56.2891 21.336V30.1113M51.7911 21.336V30.1113M54.018 35.2705V50.3518M54.018 50.3518C55.5824 50.3518 56.8623 51.6316 56.8623 53.196V57.8924C56.8623 59.4568 55.5825 60.7366 54.0181 60.7366C52.4537 60.7366 51.1737 59.4568 51.1737 57.8924V53.196C51.1737 51.6316 52.4536 50.3518 54.018 50.3518ZM21.9414 57.104C29.6525 60.0379 37.3637 60.0109 45.075 57.1828V46.2509M26.8761 46.0745V53.3946M21.9414 42.7923V57.1828M47.6847 36.2562C46.653 37.6901 44.9662 38.6021 43.06 38.5763M24.1423 38.5763C21.0015 38.5763 18.4554 36.0302 18.4554 32.8894M51.3497 16H56.6863C59.3745 16 61.5739 18.1993 61.5739 20.8876V30.3829C61.5739 33.0711 59.3745 35.2705 56.6863 35.2705H51.3497C48.6615 35.2705 46.4621 33.0711 46.4621 30.3829V20.8876C46.4621 18.1993 48.6615 16 51.3497 16Z" stroke="#8081BD" stroke-width="3" stroke-miterlimit="22.9256" stroke-linecap="round" stroke-linejoin="round"/>
</svg>
