<svg width="76" height="76" viewBox="0 0 76 76" fill="none" xmlns="http://www.w3.org/2000/svg">
<rect width="76" height="76" rx="5" fill="white"/>
<path d="M40.9823 15C39.9362 20.6093 38.89 26.2186 38.1391 29.3173C37.3882 32.4159 36.9325 33.0038 33.9927 35.7746C31.0529 38.5454 25.6289 43.499 22.77 46.1816C19.911 48.8642 19.617 49.2757 19.3564 49.702C19.0958 50.1283 18.8685 50.5692 19.089 51.5467C19.3095 52.5242 19.9777 54.0382 20.4662 55.2288C20.9546 56.4195 21.2633 57.2867 21.4324 57.9923C21.6014 58.6979 21.6308 59.2417 21.6382 59.859C21.6455 60.4764 21.6308 61.1673 21.6161 61.8581M39.5196 31.4751C36.6974 31.4604 33.8751 31.4457 31.979 31.4384C30.0828 31.431 29.1126 31.431 28.3262 31.4751C27.5398 31.5192 26.9372 31.6074 26.5183 31.7471C26.0993 31.8867 25.8641 32.0778 24.8499 33.3272C23.8356 34.5766 22.0424 36.8844 21.1458 38.0824C20.2491 39.2803 20.2491 39.3685 20.8224 40.7061C21.3956 42.0437 22.5421 44.6308 23.6886 47.2178M26.1169 31.9469C27.2184 35.2439 28.3198 38.541 28.9 40.3365C29.4801 42.132 29.5389 42.4259 29.708 42.5949C29.877 42.764 30.1562 42.8081 31.4939 42.5435C32.8315 42.2789 35.2274 41.7057 36.5356 41.4117C37.8439 41.1177 38.0643 41.103 38.9683 41.6762C39.8723 42.2495 41.4598 43.4108 42.6431 44.2486C43.8264 45.0865 44.6054 45.6009 45.3845 46.1154M38.373 56.4342C37.6234 54.1264 36.8737 51.8187 36.4254 50.4884C35.9771 49.1581 35.8301 48.8054 35.2127 48.2321C34.5954 47.6588 33.5076 46.8651 32.4199 46.0713M57.4671 33.4154C54.8801 36.4581 52.293 39.5008 50.9848 41.103C49.6766 42.7052 49.6472 42.8669 49.5957 43.4695C49.5443 44.0722 49.4708 45.1159 49.412 45.6597C49.3532 46.2036 49.3092 46.2477 48.6036 46.7842C47.8981 47.3207 46.531 48.3497 45.8181 48.8935C45.1052 49.4374 45.0464 49.4962 44.6862 50.7603C44.3261 52.0244 43.6647 54.4939 43.3339 55.7286C43.0032 56.9633 43.0032 56.9633 42.6798 57.294C42.3565 57.6248 41.7097 58.2862 41.2393 58.7419C40.769 59.1976 40.475 59.4475 40.1736 59.7341C39.8723 60.0208 39.5637 60.3441 39.3799 60.5719C39.1962 60.7998 39.1374 60.9321 39.0786 61.0644M27.1282 20.7392C29.1365 20.7392 30.7645 22.3672 30.7645 24.3755C30.7645 26.3838 29.1365 28.0118 27.1282 28.0118C25.1199 28.0118 23.4919 26.3838 23.4919 24.3755C23.4919 22.3672 25.1199 20.7392 27.1282 20.7392Z" stroke="#8081BD" stroke-width="3" stroke-miterlimit="22.9256" stroke-linecap="round" stroke-linejoin="round"/>
</svg>
